<mxfile host="app.diagrams.net" agent="Mozilla/5.0 (Macintosh; Intel Mac OS X 10_15_7) AppleWebKit/537.36 (KHTML, like Gecko) Chrome/126.0.0.0 Safari/537.36" version="24.9.1">
  <diagram name="Page-1" id="XTjnGdH6L3pLnQ3FL1FY">
    <mxGraphModel dx="2252" dy="1019" grid="1" gridSize="10" guides="1" tooltips="1" connect="1" arrows="1" fold="1" page="1" pageScale="1" pageWidth="850" pageHeight="1100" math="0" shadow="0">
      <root>
        <mxCell id="0" />
        <mxCell id="1" parent="0" />
        <mxCell id="ubXrsqS5AFeB8ylgSm0F-1" value="Users" style="swimlane;fontStyle=0;childLayout=stackLayout;horizontal=1;startSize=30;horizontalStack=0;resizeParent=1;resizeParentMax=0;resizeLast=0;collapsible=1;marginBottom=0;whiteSpace=wrap;html=1;" parent="1" vertex="1">
          <mxGeometry x="-50" y="120" width="170" height="120" as="geometry" />
        </mxCell>
        <mxCell id="ubXrsqS5AFeB8ylgSm0F-2" value="user_id BIGSERIAL (PK)" style="text;strokeColor=none;fillColor=none;align=left;verticalAlign=middle;spacingLeft=4;spacingRight=4;overflow=hidden;points=[[0,0.5],[1,0.5]];portConstraint=eastwest;rotatable=0;whiteSpace=wrap;html=1;" parent="ubXrsqS5AFeB8ylgSm0F-1" vertex="1">
          <mxGeometry y="30" width="170" height="30" as="geometry" />
        </mxCell>
        <mxCell id="ubXrsqS5AFeB8ylgSm0F-3" value="user_name&amp;nbsp;VARCHAR(30)&amp;nbsp;" style="text;strokeColor=none;fillColor=none;align=left;verticalAlign=middle;spacingLeft=4;spacingRight=4;overflow=hidden;points=[[0,0.5],[1,0.5]];portConstraint=eastwest;rotatable=0;whiteSpace=wrap;html=1;" parent="ubXrsqS5AFeB8ylgSm0F-1" vertex="1">
          <mxGeometry y="60" width="170" height="30" as="geometry" />
        </mxCell>
        <mxCell id="GyI-fgyB1-bz0dxoX6m_-2" value="&lt;span style=&quot;font-size: 13px;&quot;&gt;created_at TIMESTAMPZ&lt;/span&gt;" style="text;strokeColor=none;fillColor=none;align=left;verticalAlign=middle;spacingLeft=4;spacingRight=4;overflow=hidden;points=[[0,0.5],[1,0.5]];portConstraint=eastwest;rotatable=0;whiteSpace=wrap;html=1;" vertex="1" parent="ubXrsqS5AFeB8ylgSm0F-1">
          <mxGeometry y="90" width="170" height="30" as="geometry" />
        </mxCell>
        <mxCell id="ubXrsqS5AFeB8ylgSm0F-5" value="Lists" style="swimlane;fontStyle=0;childLayout=stackLayout;horizontal=1;startSize=30;horizontalStack=0;resizeParent=1;resizeParentMax=0;resizeLast=0;collapsible=1;marginBottom=0;whiteSpace=wrap;html=1;" parent="1" vertex="1">
          <mxGeometry x="210" y="50" width="200" height="270" as="geometry" />
        </mxCell>
        <mxCell id="ubXrsqS5AFeB8ylgSm0F-6" value="&lt;span style=&quot;font-size: 13px;&quot;&gt;list_id&amp;nbsp;BIGSERIAL&amp;nbsp;&lt;/span&gt;(PK)" style="text;strokeColor=none;fillColor=none;align=left;verticalAlign=middle;spacingLeft=4;spacingRight=4;overflow=hidden;points=[[0,0.5],[1,0.5]];portConstraint=eastwest;rotatable=0;whiteSpace=wrap;html=1;" parent="ubXrsqS5AFeB8ylgSm0F-5" vertex="1">
          <mxGeometry y="30" width="200" height="30" as="geometry" />
        </mxCell>
        <mxCell id="ubXrsqS5AFeB8ylgSm0F-7" value="&lt;span style=&quot;font-size: 13px;&quot;&gt;list_name&amp;nbsp;VARCHAR(30)&amp;nbsp;&lt;/span&gt;" style="text;strokeColor=none;fillColor=none;align=left;verticalAlign=middle;spacingLeft=4;spacingRight=4;overflow=hidden;points=[[0,0.5],[1,0.5]];portConstraint=eastwest;rotatable=0;whiteSpace=wrap;html=1;" parent="ubXrsqS5AFeB8ylgSm0F-5" vertex="1">
          <mxGeometry y="60" width="200" height="30" as="geometry" />
        </mxCell>
        <mxCell id="ubXrsqS5AFeB8ylgSm0F-8" value="&lt;span style=&quot;font-size: 13px;&quot;&gt;user_id&amp;nbsp;&lt;/span&gt;&lt;span style=&quot;font-size: 13px;&quot;&gt;BIGINT&lt;/span&gt;&lt;span style=&quot;font-size: 13px;&quot;&gt;&amp;nbsp;&lt;/span&gt;&lt;span style=&quot;font-size: 13px;&quot;&gt;(FK)&lt;/span&gt;" style="text;strokeColor=none;fillColor=none;align=left;verticalAlign=middle;spacingLeft=4;spacingRight=4;overflow=hidden;points=[[0,0.5],[1,0.5]];portConstraint=eastwest;rotatable=0;whiteSpace=wrap;html=1;" parent="ubXrsqS5AFeB8ylgSm0F-5" vertex="1">
          <mxGeometry y="90" width="200" height="30" as="geometry" />
        </mxCell>
        <mxCell id="ubXrsqS5AFeB8ylgSm0F-33" value="&lt;span style=&quot;font-size: 13px;&quot;&gt;created_at TIMESTAMPZ&lt;/span&gt;" style="text;strokeColor=none;fillColor=none;align=left;verticalAlign=middle;spacingLeft=4;spacingRight=4;overflow=hidden;points=[[0,0.5],[1,0.5]];portConstraint=eastwest;rotatable=0;whiteSpace=wrap;html=1;" parent="ubXrsqS5AFeB8ylgSm0F-5" vertex="1">
          <mxGeometry y="120" width="200" height="30" as="geometry" />
        </mxCell>
        <mxCell id="ubXrsqS5AFeB8ylgSm0F-32" value="&lt;span style=&quot;font-size: 13px;&quot;&gt;economy_sector&lt;/span&gt;&lt;span style=&quot;font-size: 13px;&quot;&gt;_id&lt;/span&gt;&lt;span style=&quot;font-size: 13px;&quot;&gt;&amp;nbsp;&lt;/span&gt;&lt;span style=&quot;font-size: 13px;&quot;&gt;BIGINT&amp;nbsp;&lt;/span&gt;&lt;span style=&quot;font-size: 13px;&quot;&gt;(FK)&lt;/span&gt;" style="text;strokeColor=none;fillColor=none;align=left;verticalAlign=middle;spacingLeft=4;spacingRight=4;overflow=hidden;points=[[0,0.5],[1,0.5]];portConstraint=eastwest;rotatable=0;whiteSpace=wrap;html=1;" parent="ubXrsqS5AFeB8ylgSm0F-5" vertex="1">
          <mxGeometry y="150" width="200" height="30" as="geometry" />
        </mxCell>
        <mxCell id="ubXrsqS5AFeB8ylgSm0F-31" value="&lt;span style=&quot;font-size: 13px;&quot;&gt;daily_turnover_from&lt;/span&gt;&lt;span style=&quot;font-size: 13px;&quot;&gt;&amp;nbsp;NUMERIC&lt;/span&gt;" style="text;strokeColor=none;fillColor=none;align=left;verticalAlign=middle;spacingLeft=4;spacingRight=4;overflow=hidden;points=[[0,0.5],[1,0.5]];portConstraint=eastwest;rotatable=0;whiteSpace=wrap;html=1;" parent="ubXrsqS5AFeB8ylgSm0F-5" vertex="1">
          <mxGeometry y="180" width="200" height="30" as="geometry" />
        </mxCell>
        <mxCell id="ubXrsqS5AFeB8ylgSm0F-29" value="&lt;span style=&quot;font-size: 13px;&quot;&gt;daily_turnover_to&amp;nbsp;&lt;/span&gt;&lt;span style=&quot;font-size: 13px;&quot;&gt;NUMERIC&lt;/span&gt;" style="text;strokeColor=none;fillColor=none;align=left;verticalAlign=middle;spacingLeft=4;spacingRight=4;overflow=hidden;points=[[0,0.5],[1,0.5]];portConstraint=eastwest;rotatable=0;whiteSpace=wrap;html=1;" parent="ubXrsqS5AFeB8ylgSm0F-5" vertex="1">
          <mxGeometry y="210" width="200" height="30" as="geometry" />
        </mxCell>
        <mxCell id="GyI-fgyB1-bz0dxoX6m_-3" value="number_of_items INT" style="text;strokeColor=none;fillColor=none;align=left;verticalAlign=middle;spacingLeft=4;spacingRight=4;overflow=hidden;points=[[0,0.5],[1,0.5]];portConstraint=eastwest;rotatable=0;whiteSpace=wrap;html=1;fontSize=13;" vertex="1" parent="ubXrsqS5AFeB8ylgSm0F-5">
          <mxGeometry y="240" width="200" height="30" as="geometry" />
        </mxCell>
        <mxCell id="ubXrsqS5AFeB8ylgSm0F-9" value="Shares" style="swimlane;fontStyle=0;childLayout=stackLayout;horizontal=1;startSize=30;horizontalStack=0;resizeParent=1;resizeParentMax=0;resizeLast=0;collapsible=1;marginBottom=0;whiteSpace=wrap;html=1;" parent="1" vertex="1">
          <mxGeometry x="720" y="180" width="180" height="150" as="geometry" />
        </mxCell>
        <mxCell id="ubXrsqS5AFeB8ylgSm0F-10" value="&lt;span style=&quot;font-size: 13px;&quot;&gt;share_id&lt;/span&gt;&lt;span style=&quot;font-size: 13px;&quot;&gt;&amp;nbsp;&lt;/span&gt;&lt;span style=&quot;font-size: 13px;&quot;&gt;BIGSERIAL&amp;nbsp;&lt;/span&gt;(PK)" style="text;strokeColor=none;fillColor=none;align=left;verticalAlign=middle;spacingLeft=4;spacingRight=4;overflow=hidden;points=[[0,0.5],[1,0.5]];portConstraint=eastwest;rotatable=0;whiteSpace=wrap;html=1;" parent="ubXrsqS5AFeB8ylgSm0F-9" vertex="1">
          <mxGeometry y="30" width="180" height="30" as="geometry" />
        </mxCell>
        <mxCell id="ubXrsqS5AFeB8ylgSm0F-11" value="&lt;span style=&quot;font-size: 13px;&quot;&gt;share_name&amp;nbsp;VARCHAR(30)&amp;nbsp;&lt;/span&gt;" style="text;strokeColor=none;fillColor=none;align=left;verticalAlign=middle;spacingLeft=4;spacingRight=4;overflow=hidden;points=[[0,0.5],[1,0.5]];portConstraint=eastwest;rotatable=0;whiteSpace=wrap;html=1;" parent="ubXrsqS5AFeB8ylgSm0F-9" vertex="1">
          <mxGeometry y="60" width="180" height="30" as="geometry" />
        </mxCell>
        <mxCell id="ubXrsqS5AFeB8ylgSm0F-12" value="&lt;span style=&quot;font-size: 13px;&quot;&gt;last_price&amp;nbsp;NUMERIC&lt;/span&gt;" style="text;strokeColor=none;fillColor=none;align=left;verticalAlign=middle;spacingLeft=4;spacingRight=4;overflow=hidden;points=[[0,0.5],[1,0.5]];portConstraint=eastwest;rotatable=0;whiteSpace=wrap;html=1;" parent="ubXrsqS5AFeB8ylgSm0F-9" vertex="1">
          <mxGeometry y="90" width="180" height="30" as="geometry" />
        </mxCell>
        <mxCell id="ubXrsqS5AFeB8ylgSm0F-46" value="&lt;span style=&quot;font-size: 13px;&quot;&gt;issuer_id&amp;nbsp;&lt;/span&gt;&lt;span style=&quot;font-size: 13px;&quot;&gt;BIGINT&lt;/span&gt;&lt;span style=&quot;font-size: 13px;&quot;&gt;&amp;nbsp;&amp;nbsp;(FK)&lt;/span&gt;" style="text;strokeColor=none;fillColor=none;align=left;verticalAlign=middle;spacingLeft=4;spacingRight=4;overflow=hidden;points=[[0,0.5],[1,0.5]];portConstraint=eastwest;rotatable=0;whiteSpace=wrap;html=1;" parent="ubXrsqS5AFeB8ylgSm0F-9" vertex="1">
          <mxGeometry y="120" width="180" height="30" as="geometry" />
        </mxCell>
        <mxCell id="ubXrsqS5AFeB8ylgSm0F-13" value="Issuers" style="swimlane;fontStyle=0;childLayout=stackLayout;horizontal=1;startSize=30;horizontalStack=0;resizeParent=1;resizeParentMax=0;resizeLast=0;collapsible=1;marginBottom=0;whiteSpace=wrap;html=1;" parent="1" vertex="1">
          <mxGeometry x="880" width="210" height="120" as="geometry" />
        </mxCell>
        <mxCell id="ubXrsqS5AFeB8ylgSm0F-14" value="&lt;span style=&quot;text-align: center;&quot;&gt;issuer_id&lt;/span&gt;&lt;span style=&quot;font-size: 13px;&quot;&gt;&amp;nbsp;&lt;/span&gt;&lt;span style=&quot;font-size: 13px;&quot;&gt;BIGSERIAL&amp;nbsp;&lt;/span&gt;(PK)" style="text;strokeColor=none;fillColor=none;align=left;verticalAlign=middle;spacingLeft=4;spacingRight=4;overflow=hidden;points=[[0,0.5],[1,0.5]];portConstraint=eastwest;rotatable=0;whiteSpace=wrap;html=1;" parent="ubXrsqS5AFeB8ylgSm0F-13" vertex="1">
          <mxGeometry y="30" width="210" height="30" as="geometry" />
        </mxCell>
        <mxCell id="ubXrsqS5AFeB8ylgSm0F-15" value="&lt;span style=&quot;text-align: center;&quot;&gt;&lt;font style=&quot;font-size: 13px;&quot;&gt;issuer_name&amp;nbsp;&lt;/font&gt;&lt;/span&gt;&lt;span style=&quot;font-size: 13px;&quot;&gt;VARCHAR(30)&amp;nbsp;&lt;/span&gt;" style="text;strokeColor=none;fillColor=none;align=left;verticalAlign=middle;spacingLeft=4;spacingRight=4;overflow=hidden;points=[[0,0.5],[1,0.5]];portConstraint=eastwest;rotatable=0;whiteSpace=wrap;html=1;" parent="ubXrsqS5AFeB8ylgSm0F-13" vertex="1">
          <mxGeometry y="60" width="210" height="30" as="geometry" />
        </mxCell>
        <mxCell id="ubXrsqS5AFeB8ylgSm0F-16" value="&lt;font style=&quot;font-size: 13px;&quot;&gt;economy_sector_id&lt;/font&gt;&lt;span style=&quot;font-size: 13px;&quot;&gt;&amp;nbsp;&lt;/span&gt;&lt;span style=&quot;font-size: 13px;&quot;&gt;BIGINT&lt;/span&gt;&lt;span style=&quot;font-size: 13px;&quot;&gt;&amp;nbsp;(FK)&lt;/span&gt;" style="text;strokeColor=none;fillColor=none;align=left;verticalAlign=middle;spacingLeft=4;spacingRight=4;overflow=hidden;points=[[0,0.5],[1,0.5]];portConstraint=eastwest;rotatable=0;whiteSpace=wrap;html=1;" parent="ubXrsqS5AFeB8ylgSm0F-13" vertex="1">
          <mxGeometry y="90" width="210" height="30" as="geometry" />
        </mxCell>
        <mxCell id="ubXrsqS5AFeB8ylgSm0F-17" value="&lt;span style=&quot;text-align: left; text-wrap: nowrap;&quot;&gt;Transactions&lt;/span&gt;" style="swimlane;fontStyle=0;childLayout=stackLayout;horizontal=1;startSize=30;horizontalStack=0;resizeParent=1;resizeParentMax=0;resizeLast=0;collapsible=1;marginBottom=0;whiteSpace=wrap;html=1;" parent="1" vertex="1">
          <mxGeometry x="1030" y="150" width="210" height="270" as="geometry" />
        </mxCell>
        <mxCell id="ubXrsqS5AFeB8ylgSm0F-18" value="&lt;span style=&quot;font-size: 13px;&quot;&gt;transaction_id&lt;/span&gt;&lt;span style=&quot;font-size: 13px;&quot;&gt;&amp;nbsp;&lt;/span&gt;&lt;span style=&quot;font-size: 13px;&quot;&gt;BIGSERIAL&amp;nbsp;&lt;/span&gt;(PK)" style="text;strokeColor=none;fillColor=none;align=left;verticalAlign=middle;spacingLeft=4;spacingRight=4;overflow=hidden;points=[[0,0.5],[1,0.5]];portConstraint=eastwest;rotatable=0;whiteSpace=wrap;html=1;" parent="ubXrsqS5AFeB8ylgSm0F-17" vertex="1">
          <mxGeometry y="30" width="210" height="30" as="geometry" />
        </mxCell>
        <mxCell id="2SHKF2k9hhR7ZPfPciG5-1" value="&lt;span style=&quot;font-size: 13px;&quot;&gt;created_at&lt;/span&gt;&lt;span style=&quot;font-size: 13px;&quot;&gt;&amp;nbsp;&lt;/span&gt;&lt;span style=&quot;font-size: 13px;&quot;&gt;TIMESTAMPZ&lt;/span&gt;" style="text;strokeColor=none;fillColor=none;align=left;verticalAlign=middle;spacingLeft=4;spacingRight=4;overflow=hidden;points=[[0,0.5],[1,0.5]];portConstraint=eastwest;rotatable=0;whiteSpace=wrap;html=1;" parent="ubXrsqS5AFeB8ylgSm0F-17" vertex="1">
          <mxGeometry y="60" width="210" height="30" as="geometry" />
        </mxCell>
        <mxCell id="ubXrsqS5AFeB8ylgSm0F-59" value="&lt;span style=&quot;font-size: 13px;&quot;&gt;seller&lt;/span&gt;&lt;span style=&quot;font-size: 13px;&quot;&gt;_id&lt;/span&gt;&lt;span style=&quot;font-size: 13px;&quot;&gt;&amp;nbsp;&lt;/span&gt;&lt;span style=&quot;font-size: 13px;&quot;&gt;BIGINT&lt;/span&gt;&lt;span style=&quot;font-size: 13px;&quot;&gt;&amp;nbsp;(FK)&lt;/span&gt;" style="text;strokeColor=none;fillColor=none;align=left;verticalAlign=middle;spacingLeft=4;spacingRight=4;overflow=hidden;points=[[0,0.5],[1,0.5]];portConstraint=eastwest;rotatable=0;whiteSpace=wrap;html=1;" parent="ubXrsqS5AFeB8ylgSm0F-17" vertex="1">
          <mxGeometry y="90" width="210" height="30" as="geometry" />
        </mxCell>
        <mxCell id="ubXrsqS5AFeB8ylgSm0F-58" value="&lt;span style=&quot;font-size: 13px;&quot;&gt;buyer&lt;/span&gt;&lt;span style=&quot;font-size: 13px;&quot;&gt;_id&lt;/span&gt;&lt;span style=&quot;font-size: 13px;&quot;&gt;&amp;nbsp;&lt;/span&gt;&lt;span style=&quot;font-size: 13px;&quot;&gt;BIGINT&lt;/span&gt;&lt;span style=&quot;font-size: 13px;&quot;&gt;&amp;nbsp;(FK)&lt;/span&gt;" style="text;strokeColor=none;fillColor=none;align=left;verticalAlign=middle;spacingLeft=4;spacingRight=4;overflow=hidden;points=[[0,0.5],[1,0.5]];portConstraint=eastwest;rotatable=0;whiteSpace=wrap;html=1;" parent="ubXrsqS5AFeB8ylgSm0F-17" vertex="1">
          <mxGeometry y="120" width="210" height="30" as="geometry" />
        </mxCell>
        <mxCell id="ubXrsqS5AFeB8ylgSm0F-57" value="&lt;font style=&quot;font-size: 13px;&quot;&gt;share_id&amp;nbsp;BIGINT&amp;nbsp;(FK)&lt;/font&gt;" style="text;strokeColor=none;fillColor=none;align=left;verticalAlign=middle;spacingLeft=4;spacingRight=4;overflow=hidden;points=[[0,0.5],[1,0.5]];portConstraint=eastwest;rotatable=0;whiteSpace=wrap;html=1;" parent="ubXrsqS5AFeB8ylgSm0F-17" vertex="1">
          <mxGeometry y="150" width="210" height="30" as="geometry" />
        </mxCell>
        <mxCell id="ubXrsqS5AFeB8ylgSm0F-56" value="&lt;font style=&quot;font-size: 13px;&quot;&gt;price&amp;nbsp;NUMERIC&lt;/font&gt;" style="text;strokeColor=none;fillColor=none;align=left;verticalAlign=middle;spacingLeft=4;spacingRight=4;overflow=hidden;points=[[0,0.5],[1,0.5]];portConstraint=eastwest;rotatable=0;whiteSpace=wrap;html=1;" parent="ubXrsqS5AFeB8ylgSm0F-17" vertex="1">
          <mxGeometry y="180" width="210" height="30" as="geometry" />
        </mxCell>
        <mxCell id="ubXrsqS5AFeB8ylgSm0F-55" value="&lt;font style=&quot;font-size: 13px;&quot;&gt;number_of_shares BIGINT&lt;/font&gt;" style="text;strokeColor=none;fillColor=none;align=left;verticalAlign=middle;spacingLeft=4;spacingRight=4;overflow=hidden;points=[[0,0.5],[1,0.5]];portConstraint=eastwest;rotatable=0;whiteSpace=wrap;html=1;" parent="ubXrsqS5AFeB8ylgSm0F-17" vertex="1">
          <mxGeometry y="210" width="210" height="30" as="geometry" />
        </mxCell>
        <mxCell id="ubXrsqS5AFeB8ylgSm0F-20" value="&lt;font style=&quot;font-size: 13px;&quot;&gt;volume&amp;nbsp;NUMERIC&lt;/font&gt;" style="text;strokeColor=none;fillColor=none;align=left;verticalAlign=middle;spacingLeft=4;spacingRight=4;overflow=hidden;points=[[0,0.5],[1,0.5]];portConstraint=eastwest;rotatable=0;whiteSpace=wrap;html=1;" parent="ubXrsqS5AFeB8ylgSm0F-17" vertex="1">
          <mxGeometry y="240" width="210" height="30" as="geometry" />
        </mxCell>
        <mxCell id="ubXrsqS5AFeB8ylgSm0F-60" style="edgeStyle=orthogonalEdgeStyle;rounded=0;orthogonalLoop=1;jettySize=auto;html=1;exitX=-0.001;exitY=1.007;exitDx=0;exitDy=0;entryX=0.5;entryY=0;entryDx=0;entryDy=0;startArrow=ERmandOne;startFill=0;endArrow=ERzeroToMany;endFill=0;exitPerimeter=0;" parent="1" source="ubXrsqS5AFeB8ylgSm0F-15" target="ubXrsqS5AFeB8ylgSm0F-9" edge="1">
          <mxGeometry relative="1" as="geometry">
            <Array as="points">
              <mxPoint x="810" y="90" />
            </Array>
          </mxGeometry>
        </mxCell>
        <mxCell id="ubXrsqS5AFeB8ylgSm0F-61" style="edgeStyle=orthogonalEdgeStyle;rounded=0;orthogonalLoop=1;jettySize=auto;html=1;entryX=1;entryY=0.5;entryDx=0;entryDy=0;startArrow=ERoneToMany;startFill=0;endArrow=ERmandOne;endFill=0;exitX=0;exitY=0.5;exitDx=0;exitDy=0;" parent="1" source="ubXrsqS5AFeB8ylgSm0F-59" target="ubXrsqS5AFeB8ylgSm0F-11" edge="1">
          <mxGeometry relative="1" as="geometry">
            <Array as="points" />
            <mxPoint x="1030" y="240" as="sourcePoint" />
          </mxGeometry>
        </mxCell>
        <mxCell id="ubXrsqS5AFeB8ylgSm0F-62" style="edgeStyle=orthogonalEdgeStyle;rounded=0;orthogonalLoop=1;jettySize=auto;html=1;exitX=1;exitY=0.5;exitDx=0;exitDy=0;entryX=0.002;entryY=0.185;entryDx=0;entryDy=0;entryPerimeter=0;startArrow=ERmandOne;startFill=0;endArrow=ERzeroToMany;endFill=0;" parent="1" source="ubXrsqS5AFeB8ylgSm0F-2" target="ubXrsqS5AFeB8ylgSm0F-8" edge="1">
          <mxGeometry relative="1" as="geometry">
            <Array as="points">
              <mxPoint x="180" y="165" />
              <mxPoint x="180" y="146" />
            </Array>
          </mxGeometry>
        </mxCell>
        <mxCell id="ubXrsqS5AFeB8ylgSm0F-63" style="edgeStyle=orthogonalEdgeStyle;rounded=0;orthogonalLoop=1;jettySize=auto;html=1;exitX=1;exitY=0.5;exitDx=0;exitDy=0;entryX=0.011;entryY=0.167;entryDx=0;entryDy=0;startArrow=ERzeroToMany;startFill=0;endArrow=ERmandOne;endFill=0;entryPerimeter=0;" parent="1" source="ubXrsqS5AFeB8ylgSm0F-67" target="ubXrsqS5AFeB8ylgSm0F-12" edge="1">
          <mxGeometry relative="1" as="geometry" />
        </mxCell>
        <mxCell id="ubXrsqS5AFeB8ylgSm0F-64" style="edgeStyle=orthogonalEdgeStyle;rounded=0;orthogonalLoop=1;jettySize=auto;html=1;exitX=1;exitY=0.5;exitDx=0;exitDy=0;startArrow=ERmandOne;startFill=0;endArrow=ERmany;endFill=0;" parent="1" source="ubXrsqS5AFeB8ylgSm0F-3" edge="1">
          <mxGeometry relative="1" as="geometry">
            <Array as="points">
              <mxPoint x="180" y="195" />
              <mxPoint x="180" y="345" />
            </Array>
            <mxPoint x="1030" y="345" as="targetPoint" />
          </mxGeometry>
        </mxCell>
        <mxCell id="ubXrsqS5AFeB8ylgSm0F-65" value="List_items" style="swimlane;fontStyle=0;childLayout=stackLayout;horizontal=1;startSize=30;horizontalStack=0;resizeParent=1;resizeParentMax=0;resizeLast=0;collapsible=1;marginBottom=0;whiteSpace=wrap;html=1;" parent="1" vertex="1">
          <mxGeometry x="490" y="200" width="150" height="120" as="geometry" />
        </mxCell>
        <mxCell id="ubXrsqS5AFeB8ylgSm0F-66" value="&lt;span style=&quot;text-align: center;&quot;&gt;list_items_id&lt;/span&gt;&lt;span style=&quot;font-size: 13px;&quot;&gt;&amp;nbsp;&lt;/span&gt;&lt;span style=&quot;font-size: 13px;&quot;&gt;BIGSERIAL&amp;nbsp;&lt;/span&gt;(PK)" style="text;strokeColor=none;fillColor=none;align=left;verticalAlign=middle;spacingLeft=4;spacingRight=4;overflow=hidden;points=[[0,0.5],[1,0.5]];portConstraint=eastwest;rotatable=0;whiteSpace=wrap;html=1;" parent="ubXrsqS5AFeB8ylgSm0F-65" vertex="1">
          <mxGeometry y="30" width="150" height="30" as="geometry" />
        </mxCell>
        <mxCell id="ubXrsqS5AFeB8ylgSm0F-67" value="&lt;span style=&quot;font-size: 13px;&quot;&gt;list_id&lt;/span&gt;&lt;span style=&quot;font-size: 13px;&quot;&gt;&amp;nbsp;&lt;/span&gt;&lt;span style=&quot;font-size: 13px;&quot;&gt;BIGINT&lt;/span&gt;&lt;span style=&quot;font-size: 13px;&quot;&gt;&amp;nbsp;(FK)&lt;/span&gt;" style="text;strokeColor=none;fillColor=none;align=left;verticalAlign=middle;spacingLeft=4;spacingRight=4;overflow=hidden;points=[[0,0.5],[1,0.5]];portConstraint=eastwest;rotatable=0;whiteSpace=wrap;html=1;" parent="ubXrsqS5AFeB8ylgSm0F-65" vertex="1">
          <mxGeometry y="60" width="150" height="30" as="geometry" />
        </mxCell>
        <mxCell id="ubXrsqS5AFeB8ylgSm0F-68" value="&lt;span style=&quot;font-size: 13px;&quot;&gt;share_id&lt;/span&gt;&lt;span style=&quot;font-size: 13px;&quot;&gt;&amp;nbsp;&lt;/span&gt;&lt;span style=&quot;font-size: 13px;&quot;&gt;BIGINT&lt;/span&gt;&lt;span style=&quot;font-size: 13px;&quot;&gt;&amp;nbsp;(FK)&lt;/span&gt;" style="text;strokeColor=none;fillColor=none;align=left;verticalAlign=middle;spacingLeft=4;spacingRight=4;overflow=hidden;points=[[0,0.5],[1,0.5]];portConstraint=eastwest;rotatable=0;whiteSpace=wrap;html=1;" parent="ubXrsqS5AFeB8ylgSm0F-65" vertex="1">
          <mxGeometry y="90" width="150" height="30" as="geometry" />
        </mxCell>
        <mxCell id="ubXrsqS5AFeB8ylgSm0F-69" style="edgeStyle=orthogonalEdgeStyle;rounded=0;orthogonalLoop=1;jettySize=auto;html=1;entryX=0;entryY=0.5;entryDx=0;entryDy=0;startArrow=ERmandOne;startFill=0;endArrow=ERoneToMany;endFill=0;exitX=1.003;exitY=0.111;exitDx=0;exitDy=0;exitPerimeter=0;" parent="1" source="ubXrsqS5AFeB8ylgSm0F-31" target="ubXrsqS5AFeB8ylgSm0F-67" edge="1">
          <mxGeometry relative="1" as="geometry">
            <mxPoint x="460" y="160" as="sourcePoint" />
            <Array as="points">
              <mxPoint x="450" y="233" />
              <mxPoint x="450" y="275" />
            </Array>
          </mxGeometry>
        </mxCell>
        <mxCell id="04FhlCgy9JpgHXdM22hw-2" value="&lt;span style=&quot;font-size: 13px; text-align: left;&quot;&gt;Economy_sectors&lt;/span&gt;" style="swimlane;fontStyle=0;childLayout=stackLayout;horizontal=1;startSize=30;horizontalStack=0;resizeParent=1;resizeParentMax=0;resizeLast=0;collapsible=1;marginBottom=0;whiteSpace=wrap;html=1;" parent="1" vertex="1">
          <mxGeometry x="520" y="10" width="230" height="90" as="geometry" />
        </mxCell>
        <mxCell id="04FhlCgy9JpgHXdM22hw-3" value="&lt;span style=&quot;font-size: 13px;&quot;&gt;economy_sector_id&amp;nbsp;&lt;/span&gt;&lt;span style=&quot;font-size: 13px;&quot;&gt;BIGSERIAL&amp;nbsp;&lt;/span&gt;&lt;span style=&quot;font-size: 13px;&quot;&gt;(PK)&lt;/span&gt;" style="text;strokeColor=none;fillColor=none;align=left;verticalAlign=middle;spacingLeft=4;spacingRight=4;overflow=hidden;points=[[0,0.5],[1,0.5]];portConstraint=eastwest;rotatable=0;whiteSpace=wrap;html=1;" parent="04FhlCgy9JpgHXdM22hw-2" vertex="1">
          <mxGeometry y="30" width="230" height="30" as="geometry" />
        </mxCell>
        <mxCell id="04FhlCgy9JpgHXdM22hw-4" value="&lt;span style=&quot;font-size: 13px;&quot;&gt;economy_sector&amp;nbsp;VARCHAR(30)&amp;nbsp;&lt;/span&gt;" style="text;strokeColor=none;fillColor=none;align=left;verticalAlign=middle;spacingLeft=4;spacingRight=4;overflow=hidden;points=[[0,0.5],[1,0.5]];portConstraint=eastwest;rotatable=0;whiteSpace=wrap;html=1;" parent="04FhlCgy9JpgHXdM22hw-2" vertex="1">
          <mxGeometry y="60" width="230" height="30" as="geometry" />
        </mxCell>
        <mxCell id="04FhlCgy9JpgHXdM22hw-6" style="edgeStyle=orthogonalEdgeStyle;rounded=0;orthogonalLoop=1;jettySize=auto;html=1;entryX=0;entryY=0.5;entryDx=0;entryDy=0;startArrow=ERmandOne;startFill=0;endArrow=ERoneToMany;endFill=0;exitX=0.998;exitY=0.74;exitDx=0;exitDy=0;exitPerimeter=0;" parent="1" target="ubXrsqS5AFeB8ylgSm0F-14" edge="1" source="04FhlCgy9JpgHXdM22hw-3">
          <mxGeometry relative="1" as="geometry">
            <mxPoint x="780" y="45" as="sourcePoint" />
            <Array as="points">
              <mxPoint x="810" y="62" />
              <mxPoint x="810" y="45" />
            </Array>
          </mxGeometry>
        </mxCell>
        <mxCell id="GyI-fgyB1-bz0dxoX6m_-1" style="edgeStyle=orthogonalEdgeStyle;rounded=0;orthogonalLoop=1;jettySize=auto;html=1;entryX=1.005;entryY=0.133;entryDx=0;entryDy=0;entryPerimeter=0;startArrow=ERmandOne;startFill=0;endArrow=ERoneToMany;endFill=0;exitX=0;exitY=0.667;exitDx=0;exitDy=0;exitPerimeter=0;" edge="1" parent="1" source="04FhlCgy9JpgHXdM22hw-3" target="ubXrsqS5AFeB8ylgSm0F-33">
          <mxGeometry relative="1" as="geometry">
            <mxPoint x="500" y="40" as="sourcePoint" />
            <Array as="points">
              <mxPoint x="450" y="60" />
              <mxPoint x="450" y="174" />
            </Array>
          </mxGeometry>
        </mxCell>
      </root>
    </mxGraphModel>
  </diagram>
</mxfile>
